<?xml version="1.0" encoding="UTF-8" standalone="no"?>
<!-- Created with Inkscape (http://www.inkscape.org/) -->

<svg
   width="121.02611mm"
   height="121.12673mm"
   viewBox="0 0 121.02611 121.12673"
   version="1.1"
   id="svg1"
   xml:space="preserve"
   xmlns="http://www.w3.org/2000/svg"
   xmlns:svg="http://www.w3.org/2000/svg"><defs
     id="defs1" /><g
     id="layer1"
     transform="translate(-40.156169,-78.883668)"><path
       style="fill:#d9ecff;fill-opacity:1"
       d="m 126.01346,199.58119 c -12.29937,-2.58126 -21.30095,-11.79472 -23.56694,-24.12163 -0.46279,-2.51758 -0.40901,-7.6715 0.10786,-10.33755 2.73862,-14.12588 14.72608,-24.09884 29.01533,-24.13926 3.5447,-0.01 6.1115,0.38188 9.30128,1.42018 10.41051,3.38868 17.91899,12.09335 19.95557,23.13475 0.62854,3.40766 0.40328,8.86157 -0.51118,12.37651 -0.80296,3.08636 -2.54074,6.86371 -4.38499,9.53152 -1.61156,2.33119 -5.33421,6.01569 -7.65949,7.58098 -2.49269,1.67799 -6.28816,3.3884 -9.21947,4.15471 -3.51063,0.91775 -9.67001,1.10662 -13.03797,0.39979 z m 10.09056,-8.36347 c 8.17832,-1.73346 14.9581,-8.7423 16.38551,-16.93914 0.45722,-2.62552 0.18468,-7.47735 -0.55043,-9.79923 -4.06437,-12.83737 -18.39233,-18.86485 -30.15304,-12.68477 -9.12663,4.79591 -13.43793,15.62564 -10.1583,25.51706 2.32569,7.01436 8.66281,12.56165 15.9931,13.99983 1.85915,0.36476 6.56532,0.31275 8.48316,-0.0937 z m -5.49564,-2.43928 c -0.98697,-0.20708 -2.70543,-1.89684 -2.99711,-2.94704 -0.34957,-1.25864 -0.36208,-15.23069 -0.0147,-16.44185 0.352,-1.22733 1.75168,-2.61262 2.9717,-2.94113 1.80247,-0.48536 3.98326,0.47922 4.84322,2.1422 0.32134,0.6214 0.39159,2.24773 0.39159,9.06563 0,8.18168 -0.009,8.32188 -0.59621,9.19311 -0.96798,1.43637 -2.96131,2.27259 -4.59846,1.92908 z m -0.515,-25.59255 c -1.60351,-0.51088 -2.68159,-1.42832 -3.42024,-2.91061 -1.12066,-2.24885 -0.7327,-4.59711 1.05478,-6.3846 1.80235,-1.80235 4.13491,-2.17585 6.43387,-1.03023 1.56111,0.77793 2.33474,1.72095 2.86948,3.49775 1.22505,4.07054 -2.88779,8.11806 -6.93789,6.82769 z m -83.640171,30.83099 c -2.61783,-0.90455 -4.50628,-2.63869 -5.7073,-5.24097 -0.56381,-1.22165 -0.58974,-1.5918 -0.58974,-8.42156 v -7.14375 l 0.82327,-2.30026 c 2.29754,-6.41955 8.20904,-12.32537 16.62736,-16.6114 9.61371,-4.89464 22.82913,-7.97501 36.00431,-8.39221 5.87617,-0.18607 6.550661,-0.0195 7.672841,1.8954 1.33048,2.2703 0.61707,4.71436 -1.720871,5.89545 -1.02517,0.5179 -1.59257,0.59602 -4.36349,0.60074 -6.48226,0.011 -15.41208,1.25038 -22.00752,3.05432 -11.52623,3.15258 -20.67605,8.8915 -23.66042,14.84021 l -0.90881,1.8115 v 5.95313 5.95312 l 25.13542,0.13229 c 24.75791,0.13031 25.14931,0.14046 26.06056,0.67577 2.811621,1.65167 2.811531,5.65028 -1.7e-4,7.23054 -0.99666,0.56015 -1.00635,0.56035 -26.49329,0.55172 -23.83519,-0.008 -25.5859,-0.0396 -26.87215,-0.48404 z m 46.02031,-53.59745 c -13.38188,-2.54051 -23.34109,-12.78776 -25.34452,-26.07752 -2.28404,-15.151179 7.19619,-29.974458 21.89421,-34.233779 6.76479,-1.960359 14.304571,-1.552914 20.766971,1.122232 7.62323,3.155679 14.02977,9.801708 16.96726,17.601538 2.68386,7.126339 2.68386,14.895649 0,22.021999 -2.94396,7.81699 -9.48681,14.56439 -17.14814,17.68422 -3.7375,1.52198 -6.42854,2.04923 -10.980211,2.15131 -2.86678,0.0643 -4.85385,-0.0229 -6.15557,-0.27 z m 11.534191,-8.85964 c 5.95149,-1.72991 11.16366,-6.05777 13.88647,-11.53044 2.01784,-4.05573 2.84212,-8.54609 2.31916,-12.63385 -1.494,-11.677849 -10.83676,-20.055559 -22.345781,-20.037589 -3.39264,0.005 -5.62949,0.4171 -8.49236,1.56345 -5.33676,2.13694 -9.58331,6.17688 -12.01854,11.433779 -1.32227,2.85439 -1.86984,5.03629 -2.0631,8.22094 -0.66636,10.98081 6.83075,20.86773 17.71086,23.35642 2.47239,0.56553 8.474931,0.36221 11.003291,-0.37271 z"
       id="path1" /></g></svg>
