<?xml version="1.0" encoding="UTF-8" standalone="no"?>
<!-- Created with Inkscape (http://www.inkscape.org/) -->

<svg
   width="76.183792mm"
   height="78.219681mm"
   viewBox="0 0 76.183792 78.219681"
   version="1.1"
   id="svg1"
   xml:space="preserve"
   xmlns="http://www.w3.org/2000/svg"
   xmlns:svg="http://www.w3.org/2000/svg"><defs
     id="defs1" /><g
     id="layer1"
     transform="translate(-69.892787,-92.355466)"><path
       style="fill:#d9ecff;fill-opacity:1"
       d="m 127.93823,170.28114 c -14.18037,-2.61242 -32.789118,-16.20465 -45.339238,-33.11674 -6.23329,-8.39976 -10.98701,-18.25508 -12.35022,-25.60424 -0.3028,-1.63237 -0.40679,-3.28295 -0.3334,-5.29167 0.15285,-4.18349 0.52003,-4.89504 4.53925,-8.796497 5.74985,-5.58139 8.85973,-6.38973 13.18783,-3.42787 2.89167,1.97887 7.36127,8.090357 8.42196,11.515737 1.17281,3.78744 0.48869,5.68203 -3.52478,9.76144 l -2.7014,2.74578 0.01,1.50459 c 0.0187,2.92386 2.92241,7.65233 8.78123,14.29969 1.713458,1.94407 4.367658,4.74469 5.898208,6.2236 7.43723,7.18627 12.01279,10.17742 15.12263,9.88601 1.12755,-0.10566 1.45447,-0.3191 3.70417,-2.41844 3.15965,-2.94848 4.70925,-3.74232 7.22996,-3.7038 2.19856,0.0336 3.86209,0.64001 6.58388,2.40002 7.82411,5.05937 10.43977,9.81612 8.06194,14.66118 -1.19677,2.43855 -7.17331,8.41217 -9.08957,9.08514 -1.80069,0.63239 -5.57788,0.75952 -8.20208,0.27607 z m 9.00976,-37.49707 c -0.056,-0.1819 -0.16686,-1.46182 -0.24643,-2.84427 -0.39419,-6.84875 -3.73492,-14.00402 -8.89448,-19.05047 -4.97967,-4.87049 -11.88348,-7.96236 -18.71206,-8.38017 l -2.72033,-0.16644 v -1.71584 -1.715827 l 2.57968,0.18569 c 14.06084,1.012137 25.77486,10.241867 29.8168,23.493307 0.77172,2.53009 1.46635,6.78851 1.46862,9.0034 l 0.002,1.52135 h -1.5958 c -1.04598,0 -1.63087,-0.11395 -1.69756,-0.33073 z m -9.21605,-2.24896 c -0.32657,-4.96353 -2.33719,-9.1625 -6.24554,-13.04317 -2.16365,-2.14833 -2.9198,-2.7099 -5.05755,-3.75611 -2.97454,-1.45572 -4.90802,-2.00327 -7.87135,-2.22911 l -2.18281,-0.16635 v -1.68049 -1.6805 l 0.85989,0.005 c 2.95899,0.018 7.04735,0.99901 9.96907,2.39203 8.03594,3.83135 13.21113,11.33833 13.93078,20.20754 l 0.18386,2.26602 h -1.71701 -1.71702 z m -9.16845,0.0717 c -0.41216,-2.55495 -1.57449,-4.85789 -3.34594,-6.62934 -1.4833,-1.4833 -4.031,-2.88037 -5.73401,-3.14433 -0.5457,-0.0846 -1.4089,-0.21871 -1.91823,-0.29807 l -0.92604,-0.14428 v -1.57551 -1.57551 l 1.12448,0.004 c 3.25235,0.0113 7.25671,1.79209 9.84103,4.37641 2.58632,2.58632 4.38032,6.55831 4.38032,9.69819 v 1.26732 h -1.5512 -1.5512 z"
       id="path1" /></g></svg>
