<?xml version="1.0" encoding="UTF-8" standalone="no"?>
<!-- Created with Inkscape (http://www.inkscape.org/) -->

<svg
   width="135.3118mm"
   height="135.33815mm"
   viewBox="0 0 135.3118 135.33815"
   version="1.1"
   id="svg1"
   xml:space="preserve"
   xmlns="http://www.w3.org/2000/svg"
   xmlns:svg="http://www.w3.org/2000/svg"><defs
     id="defs1" /><g
     id="layer1"
     transform="translate(-38.92717,-69.210886)"><rect
       style="fill:#d9ecff;stroke-width:0.264999"
       id="rect2"
       width="94.002205"
       height="82.591537"
       x="61.400284"
       y="97.262398" /><path
       style="fill:#000000"
       d="m 100.41107,204.37146 c -13.748961,-1.4177 -26.358979,-6.61938 -36.718421,-15.1465 -12.956162,-10.66455 -21.573013,-25.84927 -24.020728,-42.3296 -2.683071,-18.06499 1.931352,-36.06619 13.06821,-50.980037 2.424236,-3.2464 9.64049,-10.46266 12.88689,-12.88689 18.492271,-13.80903 41.938139,-17.50782 63.452429,-10.01018 14.13467,4.92587 26.88615,15.15275 35.01035,28.078817 4.84227,7.70435 8.3092,17.30106 9.64274,26.69187 0.67524,4.75498 0.67524,13.50128 0,18.25625 -1.64568,11.58889 -6.10921,22.35855 -13.20409,31.85901 -2.43825,3.26496 -9.64758,10.4743 -12.91254,12.91255 -9.31754,6.95827 -19.79365,11.37245 -31.00885,13.06578 -4.04999,0.61149 -12.5259,0.86736 -16.19599,0.48893 z m 39.08004,-37.10697 c 1.60827,-0.78977 2.52527,-1.70598 3.46437,-3.4614 l 0.58267,-1.08915 v -20.10833 -20.10833 l -0.58267,-1.08915 c -0.9391,-1.75542 -1.8561,-2.67163 -3.46437,-3.4614 -1.50029,-0.73674 -1.54539,-0.74165 -7.62957,-0.83162 l -6.12037,-0.0905 -0.1097,-2.29455 c -0.0821,-1.71728 -0.26971,-2.62641 -0.74571,-3.61367 -0.92404,-1.91652 -3.0035,-3.88745 -4.90373,-4.6478 -1.55992,-0.62419 -1.71142,-0.633 -12.34664,-0.71823 -6.84006,-0.0548 -11.321214,0.0161 -12.285843,0.19442 -3.068338,0.56722 -5.299554,2.16971 -6.717425,4.82456 -0.771073,1.44378 -0.909141,1.98852 -1.004823,3.96451 l -0.110924,2.29076 -6.120363,0.0905 c -6.08418,0.09 -6.129285,0.0949 -7.629571,0.83162 -1.608277,0.78977 -2.525277,1.70598 -3.464377,3.4614 l -0.582666,1.08915 -0.07275,19.52638 c -0.0463,12.42694 0.02348,19.88375 0.19192,20.50928 0.405645,1.50645 1.718009,3.38338 2.923468,4.18111 2.17107,1.43675 1.167459,1.39758 34.395894,1.34258 l 30.82396,-0.051 z M 93.987644,119.83644 c -0.540953,-0.3789 -0.588037,-0.62358 -0.588037,-3.05585 0,-3.02206 0.324549,-3.93491 1.658123,-4.66373 0.777456,-0.42489 1.819906,-0.4675 11.43875,-0.4675 11.65033,0 11.86775,0.0268 12.82996,1.58372 0.44021,0.71227 0.5315,1.31787 0.5315,3.52574 0,2.45477 -0.0465,2.69834 -0.58804,3.07762 -0.51133,0.35815 -2.16036,0.41188 -12.64112,0.41188 -10.480774,0 -12.129808,-0.0537 -12.641136,-0.41188 z"
       id="path2" /></g></svg>
