<?xml version="1.0" encoding="UTF-8" standalone="no"?>
<!-- Created with Inkscape (http://www.inkscape.org/) -->

<svg
   width="135.3343mm"
   height="135.42317mm"
   viewBox="0 0 135.3343 135.42317"
   version="1.1"
   id="svg1"
   xml:space="preserve"
   xmlns="http://www.w3.org/2000/svg"
   xmlns:svg="http://www.w3.org/2000/svg"><defs
     id="defs1" /><g
     id="layer1"
     transform="translate(-50.183809,-82.168243)"><path
       style="fill:#d9ecff;fill-opacity:1"
       d="m 53.804622,217.31438 c -1.201131,-0.36053 -2.466845,-1.48299 -3.064565,-2.71771 l -0.556252,-1.14907 v -38.16078 -38.16078 l 0.649432,-0.64943 c 0.827689,-0.82769 1.842197,-0.82769 2.669886,0 l 0.649432,0.64943 v 37.82855 c 0,34.0368 0.04167,37.87021 0.415774,38.24431 0.367043,0.36704 1.988186,0.41578 13.831753,0.41578 14.564554,0 14.329649,-0.0232 14.699728,1.45131 0.193401,0.77058 -0.399632,2.10521 -1.045569,2.35308 -0.651893,0.25016 -27.397643,0.15104 -28.249619,-0.10469 z m 35.397194,-0.37639 c -0.831427,-0.83143 -0.832942,-1.84494 -0.004,-2.67388 l 0.649432,-0.64943 h 41.099142 c 44.74518,0 42.6911,0.0664 45.30253,-1.46403 1.5132,-0.88679 3.59864,-3.13642 4.34581,-4.68796 0.91602,-1.90217 1.2553,-4.34073 0.89587,-6.43906 -0.42127,-2.45938 -1.47965,-4.37658 -3.41603,-6.18797 -2.70144,-2.52706 -5.8942,-3.35525 -9.94644,-2.58007 -3.21809,0.6156 -5.43221,-0.041 -6.9796,-2.06969 -1.49405,-1.9588 -1.42724,0.16607 -1.42724,-45.39179 v -42.01355 l -6.50562,-0.0793 -6.50562,-0.0793 -0.63813,-0.74236 c -0.78186,-0.90957 -0.80358,-1.48949 -0.0898,-2.39696 l 0.54837,-0.69714 h 6.57552 6.57552 l 0.086,-5.23391 c 0.082,-4.99216 0.11696,-5.29463 0.75625,-6.54844 0.49636,-0.97348 1.09047,-1.59776 2.28991,-2.40621 3.35975,-2.26454 7.49189,-2.98596 11.41728,-1.99331 4.99428,1.26295 8.56542,4.55589 10.59319,9.76796 l 0.69396,1.7837 v 55.56249 55.5625 l -0.58618,1.86307 c -1.41139,4.48591 -5.04912,8.17495 -9.5812,9.71636 l -1.73887,0.5914 -41.87834,0.0702 -41.878337,0.0701 z M 181.27576,94.43563 c -1.17649,-4.59228 -5.07259,-7.92036 -9.68012,-8.26882 -3.0853,-0.23335 -6.71284,1.0255 -7.53465,2.6147 -0.31424,0.60767 -0.37094,8.13837 -0.37094,49.26904 0,37.07894 0.0747,48.71566 0.3161,49.24548 0.5683,1.24728 1.45729,1.49221 3.68982,1.01661 4.48773,-0.95604 9.07584,0.21248 12.68984,3.2319 l 1.16362,0.97218 0.0669,-48.24545 c 0.0592,-42.71915 0.0202,-48.4276 -0.34053,-49.83564 z M 61.644294,208.83886 c -1.188708,-0.36319 -2.399732,-1.6734 -2.750398,-2.97568 -0.470405,-1.74695 -0.20938,-6.21273 0.425626,-7.28188 1.006191,-1.69412 1.951403,-2.03225 5.680949,-2.03225 2.939288,0 3.410333,0.0642 4.233333,0.57704 1.688483,1.05213 1.984375,1.89322 1.984375,5.64067 0,3.7478 -0.296357,4.59 -1.984375,5.63924 -0.784675,0.48775 -1.370335,0.58437 -3.836458,0.63296 -1.600729,0.0315 -3.289602,-0.0585 -3.753052,-0.2001 z m 5.605135,-6.0721 v -2.24896 h -2.248958 -2.248958 l -0.07857,1.95961 c -0.04321,1.07779 -0.01533,2.12443 0.06197,2.32588 0.107482,0.28009 0.655051,0.34816 2.327531,0.28934 l 2.186984,-0.0769 z m 9.789583,6.04448 c -1.289979,-0.70557 -1.533984,-1.83244 -0.642255,-2.96609 l 0.54837,-0.69714 h 10.650301 10.650303 l 0.57528,0.61236 c 0.95011,1.01134 0.7265,2.33404 -0.50196,2.9693 -0.6191,0.32015 -2.47811,0.3857 -10.749713,0.37904 -6.726351,-0.005 -10.174431,-0.10281 -10.530326,-0.29747 z m 53.196548,-0.0818 c -1.49807,-0.54439 -2.29182,-1.21512 -2.98156,-2.51943 -0.58417,-1.10468 -0.60541,-1.37565 -0.5998,-7.65205 0.006,-7.24849 0.14146,-7.94214 1.82054,-9.35499 1.46724,-1.2346 2.09204,-1.29229 13.03412,-1.20355 l 10.23026,0.083 1.12326,0.79374 c 2.07492,1.46625 2.21676,2.02608 2.31274,9.12813 0.0925,6.84784 -0.026,7.66556 -1.32586,9.14603 -1.64338,1.8717 -1.35044,1.82732 -12.5165,1.89618 -8.1824,0.0505 -10.24834,-0.009 -11.0972,-0.31703 z m 20.53522,-4.01931 c 0.44053,-0.39868 0.48386,-0.95374 0.48386,-6.19881 0,-4.88443 -0.0633,-5.82419 -0.41578,-6.1767 -0.36267,-0.36268 -1.63996,-0.41578 -10.00125,-0.41578 -7.10259,0 -9.66771,0.0822 -9.90297,0.3175 -0.22834,0.22834 -0.3175,2.00791 -0.3175,6.33686 0,5.45359 0.0435,6.0447 0.46302,6.28903 0.2901,0.16897 3.96304,0.27269 9.83489,0.27773 8.3565,0.007 9.4243,-0.0394 9.85573,-0.42983 z m -74.374023,-5.02176 c -0.301603,-0.38343 -0.54837,-0.97874 -0.54837,-1.32292 0,-0.73379 0.792136,-1.60852 1.646916,-1.81864 0.331123,-0.0814 7.904977,-0.11418 16.830788,-0.0729 l 16.228739,0.0751 0.65779,0.76484 c 0.71684,0.83351 0.68079,1.73778 -0.10398,2.6086 -0.3891,0.43177 -1.5561,0.46302 -17.290389,0.46302 H 76.945127 Z m -15.232744,-8.12996 c -1.82115,-0.82831 -2.485461,-2.42134 -2.501928,-5.99965 -0.01357,-2.94793 0.564653,-4.47216 2.078035,-5.47788 0.815104,-0.54168 1.212783,-0.59745 4.260351,-0.59745 3.049192,0 3.443484,0.0554 4.246047,0.59621 1.645085,1.10862 1.971661,2.03974 1.971661,5.6215 0,2.69914 -0.07931,3.30964 -0.529167,4.07338 -1.045972,1.77578 -1.637396,2.00443 -5.376148,2.07847 -2.393067,0.0474 -3.582699,-0.0371 -4.148851,-0.29458 z m 6.217708,-5.85727 v -2.24896 h -2.38125 -2.38125 v 2.24896 2.24895 h 2.38125 2.38125 z m 9.116098,5.56827 c -0.357188,-0.35719 -0.649432,-0.95791 -0.649432,-1.33494 0,-0.37703 0.292244,-0.97776 0.649432,-1.33494 l 0.649432,-0.64944 h 10.475094 10.475096 l 0.64943,0.64944 c 0.35719,0.35718 0.64943,0.95791 0.64943,1.33494 0,0.37703 -0.29224,0.97775 -0.64943,1.33494 l -0.64943,0.64943 H 87.622345 77.147251 Z m 0.492344,-8.08366 c -1.187378,-0.47841 -1.467014,-1.89457 -0.593406,-3.00518 l 0.54837,-0.69714 h 16.752524 c 15.569949,0 16.791159,0.0327 17.299729,0.46302 0.30096,0.25466 0.62396,0.78744 0.71778,1.18396 0.13674,0.57791 0.0118,0.87976 -0.62982,1.52136 l -0.80041,0.80041 -16.358379,-0.0168 c -8.997105,-0.009 -16.61848,-0.12157 -16.936388,-0.24966 z m 59.956007,-3.0843 c -2.18262,-2.18261 -3.41862,-3.61689 -3.41862,-3.96701 0,-0.30162 0.24677,-0.86211 0.54837,-1.24554 0.86305,-1.09719 2.08725,-0.96134 3.55859,0.39489 l 1.18471,1.09203 v -3.87015 -3.87016 h -3.97725 c -5.1481,0 -6.42084,-0.49088 -7.69016,-2.96602 -0.4548,-0.88683 -0.50342,-1.61352 -0.50342,-7.52324 0,-6.14738 0.0342,-6.6122 0.56729,-7.71346 0.3771,-0.77898 0.97107,-1.42794 1.7716,-1.93562 l 1.20429,-0.76374 h 10.54003 c 11.65313,0 11.61961,-0.004 13.09572,1.67691 1.30406,1.48523 1.43952,2.43447 1.34701,9.43914 l -0.0832,6.30237 -0.79728,1.14652 c -0.46567,0.66963 -1.28686,1.39413 -1.9743,1.74183 -1.07263,0.54252 -1.54742,0.59531 -5.35427,0.59531 h -4.17727 v 4.02495 4.02495 l 1.26586,-1.24682 c 1.03109,-1.0156 1.44058,-1.24683 2.20795,-1.24683 1.17631,0 1.81786,0.66244 1.81786,1.87705 0,0.8092 -0.34237,1.24955 -3.10886,3.99857 -1.90827,1.89622 -3.39794,3.1594 -3.85742,3.27095 -0.6907,0.16769 -1.01287,-0.0826 -4.16719,-3.23688 z m 14.03976,-15.95614 c 0.17785,-0.33233 0.2532,-2.60864 0.20774,-6.27624 l -0.0713,-5.75477 -0.66145,-0.33445 c -0.49402,-0.24979 -2.94048,-0.33544 -9.66457,-0.33835 -7.72461,-0.003 -9.08661,0.0546 -9.59114,0.40797 -0.5777,0.40463 -0.58804,0.51542 -0.58804,6.29709 0,4.2246 0.0896,5.97479 0.3175,6.2027 0.23543,0.23543 2.83191,0.3175 10.04485,0.3175 9.40862,0 9.73651,-0.0171 10.00644,-0.52145 z M 84.823498,174.3839 c -1.616289,-1.08921 -1.977082,-1.94557 -2.612172,-6.20006 -0.32134,-2.15268 -0.628852,-4.05832 -0.68336,-4.23476 -0.05451,-0.17644 -0.848697,-0.69624 -1.764863,-1.15511 -0.916167,-0.45887 -2.23158,-1.23724 -2.923141,-1.72972 -0.691561,-0.49247 -1.350666,-0.89541 -1.464678,-0.89541 -0.114012,0 -1.893258,0.65485 -3.95388,1.45521 -4.900515,1.90341 -6.521467,1.92152 -8.170626,0.0913 -0.79614,-0.88355 -3.817473,-6.16103 -4.256217,-7.43449 -0.38591,-1.12012 -0.279418,-2.1947 0.337145,-3.40205 0.194105,-0.3801 1.876406,-1.9182 3.738446,-3.41801 l 3.385527,-2.72692 -0.03478,-3.56735 -0.03478,-3.56736 -3.258332,-2.67305 c -5.181256,-4.25056 -5.388431,-5.0882 -2.498812,-10.10307 0.998621,-1.73309 2.043576,-3.48119 2.322121,-3.88466 0.645821,-0.93548 2.293706,-1.77995 3.473374,-1.77995 0.503749,0 2.735265,0.69707 4.958926,1.54905 l 4.043018,1.54905 1.600053,-1.08603 c 0.880029,-0.59732 2.228348,-1.37578 2.996266,-1.72992 1.579677,-0.72849 1.441321,-0.39606 2.175071,-5.22617 0.745404,-4.90684 1.047256,-5.54803 3.043298,-6.46462 0.880522,-0.40434 1.749048,-0.48696 5.169458,-0.4918 3.743801,-0.005 4.216601,0.0474 5.291671,0.5895 1.69069,0.85257 2.18498,2.00854 2.92025,6.8294 l 0.60936,3.99529 1.603589,0.8085 c 0.88197,0.44468 2.25843,1.25183 3.05879,1.79367 l 1.45521,0.98517 3.96875,-1.54077 c 4.26394,-1.65538 5.09236,-1.79458 6.74493,-1.13335 1.2489,0.49971 1.60289,0.96044 4.01346,5.22369 1.57263,2.78132 1.80919,3.37381 1.80833,4.52931 -6.3e-4,0.84377 -0.18655,1.63372 -0.50896,2.16247 -0.27939,0.45819 -1.97558,2.01648 -3.76933,3.46289 l -3.26135,2.62982 0.0191,3.59812 0.0191,3.59812 3.33703,2.6895 c 3.77486,3.04239 4.29017,3.78355 4.11111,5.91301 -0.0887,1.05492 -0.48113,1.993 -1.78332,4.26297 -2.07408,3.6155 -2.7464,4.52431 -3.71921,5.02736 -1.40917,0.72871 -2.93486,0.49719 -6.9761,-1.05861 -2.07897,-0.80036 -3.86137,-1.45521 -3.96089,-1.45521 -0.0995,0 -0.87127,0.47121 -1.71498,1.04712 -0.84372,0.57592 -2.18116,1.34694 -2.97211,1.71339 l -1.438079,0.66627 -0.7084,4.41354 c -0.75605,4.71043 -0.99061,5.2863 -2.59912,6.38104 -0.82576,0.56201 -1.13677,0.59531 -5.558944,0.59531 -4.434129,0 -4.731912,-0.0321 -5.576972,-0.60161 z m 8.969513,-3.33247 c 0.21545,-0.1366 0.62754,-1.98991 1.07276,-4.82459 0.39762,-2.53153 0.85559,-4.84475 1.01771,-5.14049 0.16213,-0.29574 0.98907,-0.82404 1.83766,-1.17401 1.85631,-0.76557 3.695789,-1.82515 5.315299,-3.06173 0.66158,-0.50516 1.50737,-0.91452 1.88802,-0.91382 0.37925,7.1e-4 2.65408,0.76709 5.05518,1.70307 2.40109,0.93599 4.44549,1.62002 4.54311,1.52007 0.47005,-0.48123 3.39256,-5.78498 3.37975,-6.13353 -0.008,-0.219 -1.441,-1.52927 -3.18433,-2.91172 -3.70291,-2.93637 -4.49885,-3.7123 -4.50765,-4.39432 -0.004,-0.27526 0.0735,-1.75063 0.17111,-3.2786 0.0977,-1.52797 0.0679,-3.44543 -0.0661,-4.26103 -0.13403,-0.8156 -0.15715,-1.71686 -0.0514,-2.0028 0.10578,-0.28593 1.87098,-1.87567 3.92267,-3.53274 2.05169,-1.65707 3.73035,-3.1696 3.73035,-3.36117 0,-0.53271 -3.2694,-6.15041 -3.58142,-6.15383 -0.15077,-0.002 -2.27597,0.7709 -4.72267,1.71678 -2.4467,0.94589 -4.6022,1.71979 -4.79,1.71979 -0.1878,0 -1.09869,-0.56137 -2.0242,-1.24749 -1.64803,-1.22175 -5.352989,-3.25042 -5.936229,-3.25042 -0.81714,0 -1.22774,-1.12547 -1.84953,-5.06959 -0.3519,-2.23219 -0.70566,-4.44549 -0.78613,-4.91843 l -0.1463,-0.8599 h -3.687139 c -3.607082,0 -3.690085,0.0129 -3.822901,0.59531 -0.07467,0.32742 -0.437072,2.55948 -0.805336,4.96014 -0.485157,3.16264 -0.795296,4.48007 -1.126048,4.78328 -0.251061,0.23015 -1.272858,0.75533 -2.27066,1.16706 -0.997801,0.41173 -2.783739,1.44317 -3.96875,2.29209 -1.185011,0.84892 -2.300081,1.5445 -2.477933,1.54573 -0.177853,0.001 -2.317173,-0.77168 -4.754046,-1.71757 -2.436873,-0.94588 -4.558498,-1.71979 -4.714722,-1.71979 -0.218918,0 -3.372218,5.09224 -3.783701,6.11027 -0.04515,0.1117 1.651492,1.59316 3.770312,3.29214 2.11882,1.69898 3.863637,3.16574 3.87737,3.25947 0.01373,0.0937 0.04398,2.52693 0.0672,5.40711 l 0.04223,5.23671 -0.794808,0.74103 c -0.437144,0.40757 -2.044964,1.73054 -3.572933,2.93993 -1.527968,1.2094 -2.937746,2.34446 -3.132839,2.52237 -0.291885,0.26617 -0.04224,0.86766 1.409403,3.39584 0.970265,1.68981 1.844262,3.12104 1.942215,3.18052 0.09795,0.0595 2.138972,-0.65352 4.535597,-1.58445 2.396626,-0.93094 4.661156,-1.69261 5.032289,-1.69261 0.391476,0 1.339117,0.5037 2.257082,1.19971 0.870262,0.65984 2.475263,1.62185 3.566669,2.1378 1.091406,0.51595 2.249116,1.06608 2.572688,1.22251 0.762277,0.36851 0.966005,1.09005 1.691301,5.99007 0.34834,2.35334 0.755516,4.2212 0.966085,4.43177 0.41226,0.41226 6.275125,0.52628 6.893715,0.13406 z m -5.329999,-18.31618 c -5.472705,-0.79961 -9.714011,-5.7667 -9.730604,-11.39573 -0.01283,-4.35413 1.774954,-7.68715 5.376571,-10.02368 5.054435,-3.27903 11.932702,-2.04649 15.613612,2.79787 1.702639,2.24079 2.175469,3.78763 2.181779,7.13743 0.005,2.72834 -0.0472,3.0217 -0.83722,4.68929 -2.322489,4.90267 -7.276329,7.57325 -12.604138,6.79482 z m 5.151159,-4.51453 c 1.61524,-0.69486 3.4688,-2.70192 4.03799,-4.37242 0.62471,-1.83342 0.54276,-4.17794 -0.20176,-5.77216 -0.90188,-1.93117 -1.84058,-2.91033 -3.66321,-3.82111 -2.839546,-1.41894 -6.161573,-1.00068 -8.516563,1.07226 -3.333787,2.93452 -3.550803,7.99051 -0.479497,11.17118 2.381965,2.46678 5.622113,3.09925 8.82304,1.72225 z m 43.166199,-8.50261 c -3.56967,-3.56967 -3.83853,-4.12302 -2.60338,-5.35817 0.98091,-0.98091 1.82024,-0.8354 3.33065,0.5774 l 1.31158,1.22683 v -3.84941 -3.84942 l -4.16719,-0.0931 c -4.82248,-0.10776 -5.86548,-0.45612 -7.14345,-2.3859 l -0.7279,-1.09915 -0.0794,-6.62784 c -0.0894,-7.45811 0.0437,-8.22352 1.67973,-9.65997 1.52179,-1.33615 2.04371,-1.38775 13.12789,-1.29786 l 10.23026,0.083 1.12326,0.79375 c 2.07492,1.46625 2.21676,2.02607 2.31274,9.12812 0.0925,6.84785 -0.026,7.66557 -1.32586,9.14603 -1.45133,1.65297 -1.98985,1.8058 -6.76181,1.91893 l -4.29948,0.10193 v 3.86296 3.86297 l 0.99219,-0.94846 c 1.73064,-1.65436 2.73022,-1.92323 3.72042,-1.00071 0.39389,0.36696 0.57906,0.85211 0.57906,1.51717 0,0.8974 -0.25787,1.23336 -3.13989,4.09073 -4.18398,4.14821 -3.86594,4.15366 -8.15938,-0.13978 z m 13.99041,-15.7059 c 0.44053,-0.39867 0.48386,-0.95373 0.48386,-6.19881 0,-4.88442 -0.0633,-5.82418 -0.41578,-6.1767 -0.36267,-0.36267 -1.63996,-0.41577 -10.00125,-0.41577 -7.10259,0 -9.66771,0.0822 -9.90297,0.3175 -0.22834,0.22834 -0.3175,2.00791 -0.3175,6.33685 0,5.45359 0.0435,6.0447 0.46302,6.28904 0.2901,0.16897 3.96304,0.27269 9.83489,0.27773 8.3565,0.007 9.4243,-0.0394 9.85573,-0.42984 z m -99.937543,5.87387 -0.649432,-0.64943 v -13.18513 c 0,-13.15183 0.0015,-13.18807 0.595313,-14.35034 0.327422,-0.64086 1.052836,-1.52929 1.612032,-1.97429 l 1.016721,-0.80908 42.75223,-0.0685 42.752229,-0.0685 0.6149,0.57767 c 1.0831,1.01751 0.70502,2.59903 -0.74191,3.10343 -0.59866,0.2087 -12.74285,0.29241 -42.418289,0.29241 -31.986815,0 -41.652725,0.0733 -41.896976,0.3175 -0.238278,0.23828 -0.3175,3.54221 -0.3175,13.2412 v 12.92369 l -0.649432,0.64943 c -0.357187,0.35719 -0.957912,0.64943 -1.334943,0.64943 -0.377031,0 -0.977756,-0.29224 -1.334943,-0.64943 z"
       id="path1" /></g></svg>
