<?xml version="1.0" encoding="UTF-8" standalone="no"?>
<!-- Created with Inkscape (http://www.inkscape.org/) -->

<svg
   width="6.3495317mm"
   height="6.3500004mm"
   viewBox="0 0 6.3495317 6.3500004"
   version="1.1"
   id="svg1"
   xml:space="preserve"
   xmlns="http://www.w3.org/2000/svg"
   xmlns:svg="http://www.w3.org/2000/svg"><defs
     id="defs1" /><g
     id="layer1"
     transform="translate(-106.69462,-127.48955)"><path
       d="m 112.81199,132.48461 -2.032,-2.03226 -0.37333,0.36988 -1.32556,-1.32556 v -1.10172 l -1.55866,-0.89879 -0.81624,0.81597 0.89906,1.55866 h 1.10172 l 1.32371,1.32371 -0.37862,0.37492 2.03729,2.03755 c 0.15002,0.14976 0.34925,0.23257 0.56145,0.23257 0.2122,0 0.41143,-0.0825 0.56118,-0.23257 0.30956,-0.30956 0.30956,-0.8128 0,-1.12236 z m -4.26006,-3.14298 h -0.64082 l -0.54345,-0.94219 0.24209,-0.24235 0.94245,0.54372 v 0.64082 z m 3.88594,3.89122 c -0.0998,0.10028 -0.27411,0.10028 -0.37412,0 l -1.66158,-1.66132 0.37597,-0.37226 1.65947,1.65946 c 0.10318,0.10319 0.10318,0.27094 0,0.37412 z m -2.83289,-3.92747 v -1.18772 c 0.36221,-0.38549 0.87497,-0.62812 1.44462,-0.62812 0.31247,0 0.61331,0.072 0.89456,0.21458 l 0.3257,0.1651 -1.27503,1.27476 c -0.05,0.05 -0.0775,0.11642 -0.0775,0.18706 0,0.0706 0.0275,0.13706 0.0773,0.1868 0.10028,0.10028 0.27438,0.10001 0.37439,0 l 1.27608,-1.27609 0.16616,0.32121 c 0.14764,0.28495 0.22252,0.59134 0.22252,0.91069 0,0.67469 -0.33893,1.2708 -0.85487,1.62931 l -0.38285,-0.38285 c 0.42359,-0.2548 0.70855,-0.71755 0.70855,-1.24672 0,-0.10531 -0.0111,-0.20876 -0.0333,-0.30983 l -0.72813,0.72813 c -0.30957,0.3093 -0.81307,0.30957 -1.12263,0 -0.14975,-0.14948 -0.23257,-0.34898 -0.23257,-0.56118 0,-0.21219 0.0825,-0.41142 0.23257,-0.56118 l 0.72152,-0.72152 c -0.0958,-0.0196 -0.19315,-0.0296 -0.29237,-0.0296 -0.74533,0 -1.36075,0.56357 -1.44462,1.28667 z m -0.48393,2.48153 0.37412,0.37412 -1.44594,1.44594 c -0.14976,0.14976 -0.34925,0.23257 -0.56119,0.23257 -0.21193,0 -0.41142,-0.0825 -0.56144,-0.23257 -0.3093,-0.30956 -0.3093,-0.8128 0,-1.12236 l 1.82271,-1.82271 0.37412,0.37412 -1.82271,1.82271 c -0.10319,0.10319 -0.10319,0.27094 0,0.37412 0.10001,0.10028 0.27437,0.10028 0.37412,0 l 1.44595,-1.44594 z"
       id="path1"
       style="fill:#d9ecff;fill-opacity:1;stroke-width:0.264583" /></g></svg>
